<?xml version="1.0" encoding="utf-8"?>
<!-- Generator: Adobe Illustrator 22.1.0, SVG Export Plug-In . SVG Version: 6.00 Build 0)  -->
<svg version="1.1" id="Layer_1" xmlns="http://www.w3.org/2000/svg" xmlns:xlink="http://www.w3.org/1999/xlink" x="0px" y="0px"
	 viewBox="0 0 230 27.4" style="enable-background:new 0 0 230 27.4;" xml:space="preserve">
<style type="text/css">
	.st0{fill:#0095C8;}
</style>
<g>
	<g>
		<path class="st0" d="M0,6.7c0-1.2,0.6-2,1.8-2c1.2,0,1.8,0.8,1.8,2v5.8l6.4-6.9c0.5-0.5,0.9-0.8,1.5-0.8c0.9,0,1.7,0.7,1.7,1.7
			c0,0.6-0.3,1-0.7,1.4L8.7,12l4.7,7.2c0.3,0.6,0.8,1.2,0.8,1.5c0,1.4-1,1.8-2,1.8c-0.8,0-1.3-0.2-1.7-1l-4.5-7l-2.3,2.3v3.8
			c0,1.1-0.6,2-1.8,2c-1.2,0-1.8-0.8-1.8-2V6.7H0z"/>
		<path class="st0" d="M18.1,4.6c1,0,1.8,0.8,1.8,1.8s-0.8,1.8-1.8,1.8s-1.8-0.8-1.8-1.8S17,4.6,18.1,4.6z M16.3,11.2
			c0-0.9,0.3-1.7,1.7-1.7s1.7,0.8,1.7,1.7v9.7c0,0.9-0.3,1.7-1.7,1.7s-1.7-0.8-1.7-1.7V11.2z"/>
		<path class="st0" d="M34.3,20.9c0,1-0.5,1.6-1.6,1.6c-1,0-1.6-0.6-1.6-1.6v-0.6l0,0c-0.6,1.5-2,2.2-3.7,2.2
			c-2.9,0-5.5-2.2-5.5-6.7c0-3.3,1.7-6.4,5.4-6.4c1.6,0,2.8,0.7,3.4,1.7l0,0V6.4c0-1.1,0.7-1.7,1.7-1.7c1,0,1.7,0.6,1.7,1.7v14.5
			H34.3z M28.2,19.9c2.1,0,2.8-1.8,2.8-3.8c0-1.8-0.7-3.9-2.8-3.9c-2.2,0-2.8,2.3-2.8,3.9C25.4,18.1,26.3,19.8,28.2,19.9z"/>
		<path class="st0" d="M41.9,9.4c2.6,0,5.3,1,5.3,2.6c0,0.8-0.6,1.5-1.5,1.5c-1.4,0-1.4-1.6-3.6-1.6c-1.3,0-2,0.3-2,1
			c0,0.8,0.8,1,1.8,1.3l1.5,0.3c2,0.5,4.4,1.3,4.4,3.7c0,2.9-2.8,4.1-5.4,4.1c-3.1,0-5.8-1.4-5.8-3.1c0-0.8,0.5-1.5,1.4-1.5
			c1.5,0,1.6,2.2,4.3,2.2c1.3,0,2.1-0.6,2.1-1.3c0-0.9-0.8-1-2-1.4l-2.1-0.5c-2.1-0.5-3.6-1.4-3.6-3.7C36.6,10.5,39.4,9.4,41.9,9.4z
			"/>
		<path class="st0" d="M57.2,6.7c0-1.2,0.6-2,1.8-2c1.1,0,1.8,0.8,1.8,2v5.1H68V6.7c0-1.2,0.6-2,1.8-2s1.8,0.8,1.8,2v13.9
			c0,1.2-0.6,2-1.8,2s-1.8-0.8-1.8-2v-5.7h-7.2v5.7c0,1.2-0.6,2-1.8,2c-1.1,0-1.8-0.8-1.8-2V6.7H57.2z"/>
		<path class="st0" d="M77.3,16.7c0,1.8,1.1,3.2,3.2,3.2c2.6,0,2.6-1.7,4-1.7c0.8,0,1.4,0.7,1.4,1.4c0,2.1-3.3,3.1-5.5,3.1
			c-4.8,0-6.7-3.3-6.7-6.3c0-4,2.4-6.8,6.6-6.8c4,0,6.3,2.9,6.3,5.8c0,1.2-0.3,1.5-1.5,1.5h-7.8V16.7z M83.4,14.6
			c-0.2-1.6-1.4-2.8-3-2.8c-1.7,0-2.8,1-3.2,2.8H83.4z"/>
		<path class="st0" d="M89,6.4c0-1.1,0.7-1.7,1.7-1.7s1.7,0.6,1.7,1.7v14.4c0,1.1-0.7,1.7-1.7,1.7S89,22,89,20.8V6.4z"/>
		<path class="st0" d="M95.4,11c0-1,0.5-1.6,1.6-1.6c1,0,1.6,0.6,1.6,1.6v0.6l0,0c0.6-1.5,2-2.2,3.7-2.2c2.9,0,5.5,2.2,5.5,6.7
			c0,3.3-1.7,6.4-5.4,6.4c-1.6,0-2.8-0.7-3.4-1.7l0,0v4.7c0,1.1-0.7,1.7-1.7,1.7c-1,0-1.7-0.6-1.7-1.7V11H95.4z M101.5,12.2
			c-2.1,0-2.8,1.8-2.8,3.8c0,1.8,0.7,3.9,2.8,3.9c2.2,0,2.8-2.3,2.8-3.9C104.3,13.9,103.4,12.2,101.5,12.2z"/>
		<path class="st0" d="M117,7.4c0-1.7,0.8-2.3,2.2-2.3h5.8c3.3,0,5.6,1.6,5.6,5.4c0,3.1-2,5.4-5.8,5.4h-4.3v4.7c0,1.1-0.6,2-1.8,2
			c-1.1,0-1.8-0.8-1.8-2V7.4H117z M120.5,12.9h3.6c1.6,0,2.8-0.9,2.8-2.4c0-1.7-1.3-2.4-3.1-2.4h-3.2V12.9z"/>
		<path class="st0" d="M132.5,6.4c0-1.1,0.7-1.7,1.7-1.7s1.7,0.6,1.7,1.7v4.8l0,0c0.7-0.9,2-1.8,3.9-1.8c2.1,0,4.4,1,4.4,4.6v6.8
			c0,0.9-0.3,1.7-1.7,1.7c-1.4,0-1.7-0.8-1.7-1.7v-6.1c0-1.4-0.7-2.4-2.2-2.4c-1.3,0-2.6,1-2.6,2.8v5.8c0,0.9-0.3,1.7-1.7,1.7
			c-1.4,0-1.7-0.8-1.7-1.7V6.4z"/>
		<path class="st0" d="M152.7,9.4c4.3,0,6.4,2.9,6.4,6.6c0,3.5-1.7,6.6-6.4,6.6s-6.4-3.1-6.4-6.6C146.3,12.3,148.6,9.4,152.7,9.4z
			 M152.7,20c2.1,0,3-1.8,3-4c0-2.3-0.9-4-3-4s-3,1.7-3,4C149.7,18.2,150.6,20,152.7,20z"/>
		<path class="st0" d="M161.2,11.2c0-1,0.5-1.7,1.6-1.7c1.2,0,1.6,0.7,1.6,1.7v0.5l0,0c1-1.3,2.3-2.2,4.3-2.2c2.1,0,4.4,1,4.4,4.6
			v6.8c0,0.9-0.3,1.7-1.7,1.7c-1.4,0-1.7-0.8-1.7-1.7v-6.1c0-1.4-0.7-2.4-2.2-2.4c-1.3,0-2.6,1-2.6,2.8v5.8c0,0.9-0.3,1.7-1.7,1.7
			c-1.4,0-1.7-0.8-1.7-1.7v-9.7H161.2z"/>
		<path class="st0" d="M178.5,16.7c0,1.8,1.1,3.2,3.2,3.2c2.6,0,2.6-1.7,4-1.7c0.8,0,1.4,0.7,1.4,1.4c0,2.1-3.3,3.1-5.5,3.1
			c-4.8,0-6.7-3.3-6.7-6.3c0-4,2.4-6.8,6.6-6.8c4,0,6.3,2.9,6.3,5.8c0,1.2-0.3,1.5-1.5,1.5h-7.8V16.7z M184.7,14.6
			c-0.2-1.6-1.4-2.8-3-2.8c-1.7,0-2.8,1-3.2,2.8H184.7z"/>
	</g>
	<path class="st0" d="M230,4.4V23c0,2.4-2,4.4-4.4,4.4h-19.8c-2.4,0-4.4-2-4.4-4.4v-5.1l-5.4-3.8c-0.2-0.2-0.2-0.6,0-0.8l5.4-3.8
		V4.4c0-2.4,2-4.4,4.4-4.4h19.8C227.9-0.1,230,1.8,230,4.4z M215.6,21.4c3,0,5.8-1.3,7.8-3.3l-1.7-2.1c-1.5,1.7-3.7,2.8-6,2.8
		s-4.5-1-6-2.8l-1.7,2.1C209.8,20.1,212.5,21.4,215.6,21.4z M220.2,7.2c-1.3,0-2.2,1-2.2,2.2s1,2.2,2.2,2.2c1.1,0,2.2-1,2.2-2.2
		S221.5,7.2,220.2,7.2z M210.9,7.2c-1.3,0-2.2,1-2.2,2.2s1,2.2,2.2,2.2c1.2,0,2.2-1,2.2-2.2S212.1,7.2,210.9,7.2z"/>
</g>
</svg>
